<?xml version="1.0" standalone="no"?>
<!DOCTYPE svg PUBLIC "-//W3C//DTD SVG 20010904//EN"
 "http://www.w3.org/TR/2001/REC-SVG-20010904/DTD/svg10.dtd">
<svg version="1.0" xmlns="http://www.w3.org/2000/svg"
 width="450.000000pt" height="450.000000pt" viewBox="0 0 450.000000 450.000000"
 preserveAspectRatio="xMidYMid meet">

<g transform="translate(0.000000,450.000000) scale(0.100000,-0.100000)"
fill="#000000" stroke="none">
<path d="M2629 4043 c-30 -71 -40 -130 -38 -223 l2 -85 -77 -5 c-43 -3 -80 -2
-82 2 -3 4 2 44 11 89 25 133 17 186 -31 208 -30 13 -70 0 -78 -27 -6 -19 36
-198 54 -233 19 -34 11 -54 -31 -76 -28 -15 -41 -18 -43 -10 -20 68 -44 112
-87 157 -27 28 -55 50 -62 47 -39 -12 -3 -107 73 -190 l48 -53 -33 -35 c-17
-20 -37 -44 -44 -55 -10 -18 -15 -15 -59 33 -66 72 -143 133 -168 133 -26 0
-38 -24 -24 -50 13 -24 171 -152 217 -175 8 -4 -24 -65 -34 -65 -18 0 -26 -19
-15 -33 6 -7 10 -39 9 -72 -1 -54 3 -68 43 -139 59 -104 121 -168 192 -201 81
-37 107 -78 72 -116 -19 -21 -11 -39 17 -39 29 0 23 -26 -12 -50 -23 -17 -29
-29 -27 -49 3 -23 7 -26 42 -27 35 0 41 -4 48 -30 11 -39 4 -54 -26 -54 -36 0
-42 -19 -15 -45 34 -32 151 -57 210 -44 24 6 54 17 67 25 13 8 31 12 42 9 16
-5 17 -9 5 -31 -30 -59 30 -124 115 -124 100 0 199 78 265 209 19 39 40 71 45
71 6 0 9 5 7 12 -1 7 5 12 13 13 8 0 15 9 16 20 2 52 4 55 32 55 15 0 34 6 41
13 18 18 41 -17 41 -63 0 -95 -76 -301 -154 -418 -82 -124 -169 -192 -319
-252 -112 -44 -121 -91 -48 -249 85 -183 119 -323 89 -364 -31 -41 -144 -40
-226 2 -40 20 -101 82 -122 123 -20 37 -52 68 -71 68 -13 0 -19 -11 -25 -46
-7 -47 1 -265 12 -319 4 -22 0 -38 -14 -55 -18 -22 -22 -23 -60 -12 -28 8 -57
31 -95 72 -56 60 -80 110 -93 199 l-7 43 -43 -5 c-46 -5 -66 -14 -208 -93
-116 -64 -155 -104 -185 -190 -88 -251 -223 -446 -368 -531 -67 -39 -164 -72
-295 -99 -397 -82 -616 -46 -793 131 -113 114 -184 256 -231 467 -25 110 -55
302 -46 293 3 -3 17 -33 32 -68 32 -77 82 -153 148 -227 27 -30 54 -71 61 -90
19 -57 57 -106 95 -124 46 -22 99 -89 120 -151 26 -78 68 -147 105 -172 59
-40 105 -47 296 -46 151 0 193 4 258 21 250 68 416 262 505 590 23 87 26 115
26 277 0 164 -2 189 -27 278 -45 169 -84 237 -206 358 -117 118 -190 162 -323
199 -200 54 -534 54 -638 0 -106 -56 -318 -313 -401 -487 -95 -200 -100 -336
-22 -668 84 -360 266 -575 533 -631 138 -29 422 -4 638 56 154 43 273 121 362
238 56 73 152 262 195 385 33 92 46 105 207 196 84 49 123 65 152 65 l40 1 8
-48 c15 -109 111 -232 200 -259 46 -14 66 -5 86 35 10 21 9 43 -4 124 -14 89
-13 240 2 265 10 16 35 -7 63 -57 61 -108 157 -160 281 -153 97 5 103 13 98
118 -5 89 -26 154 -113 348 -34 76 -36 86 -24 114 9 23 26 37 68 55 145 62
187 88 256 158 88 89 148 193 202 355 48 143 54 203 22 244 l-21 26 22 35 c24
39 40 45 40 15 0 -11 5 -20 10 -20 6 0 5 -8 -2 -19 -10 -16 -9 -23 6 -40 10
-11 27 -23 37 -26 16 -5 19 -16 19 -61 l0 -54 -40 0 c-22 0 -40 -3 -40 -7 0
-11 -29 -223 -90 -658 -27 -198 -50 -394 -50 -435 0 -41 21 -234 47 -429 l48
-353 90 7 c50 4 92 8 93 10 2 2 -4 161 -14 353 l-18 349 68 229 c38 126 71
232 75 236 4 4 21 -96 39 -223 22 -153 41 -254 59 -302 35 -99 323 -616 344
-617 13 0 138 38 147 45 2 2 -55 146 -126 322 l-130 318 -11 305 c-7 168 -16
406 -21 530 -5 124 -10 254 -9 290 l0 65 41 20 c92 44 103 108 49 270 -44 133
-71 184 -120 228 -44 40 -139 92 -149 82 -9 -8 -38 -242 -47 -372 -8 -113 -4
-107 -87 -118 l-46 -7 -9 79 c-12 115 -8 269 10 341 14 57 12 74 -7 55 -3 -4
-13 -8 -21 -9 -34 -5 -134 -73 -190 -129 -33 -33 -88 -102 -123 -152 -34 -51
-70 -97 -79 -102 -18 -9 -83 30 -218 132 -55 42 -61 44 -77 30 -10 -9 -15 -20
-12 -24 3 -5 0 -9 -6 -9 -5 0 -19 -14 -29 -31 -19 -30 -18 -31 4 -55 12 -13
30 -24 39 -24 10 0 15 -4 12 -9 -4 -7 79 -83 216 -199 9 -8 32 -16 50 -17 18
-2 34 -4 36 -4 1 -1 -9 -24 -24 -52 -49 -97 -139 -176 -220 -193 -40 -9 -97
14 -119 47 -15 23 -15 28 -1 56 14 27 14 31 0 46 -15 15 -15 18 5 39 12 13 25
41 28 62 3 21 13 50 21 62 13 20 13 25 1 33 -8 5 -19 9 -26 9 -6 0 -17 15 -23
34 -9 27 -8 39 2 57 10 17 10 23 0 26 -17 7 -148 137 -161 161 -13 25 -15 92
-2 92 5 0 28 25 51 55 48 62 49 92 4 122 -48 31 -82 -21 -83 -124 -1 -41 -5
-53 -20 -58 -28 -8 -53 5 -46 24 4 9 9 32 12 52 6 43 -22 79 -60 79 -52 0 -62
-55 -21 -116 25 -36 25 -39 8 -51 -16 -11 -20 -8 -42 30 -37 63 -52 77 -82 77
-61 0 -74 -75 -21 -122 27 -24 40 -29 74 -26 41 3 43 1 69 -47 34 -62 34 -67
2 -102 -20 -22 -27 -25 -31 -13 -7 17 -54 63 -167 164 -90 80 -124 139 -133
229 -5 56 -3 66 21 101 14 21 26 47 26 58 0 10 16 32 35 49 19 17 40 46 47 65
9 26 18 34 36 34 15 0 37 14 58 36 l33 37 34 -17 c44 -20 67 -20 112 1 33 16
36 16 48 -1 7 -10 35 -30 62 -44 45 -24 55 -36 95 -116 40 -78 45 -96 45 -155
0 -57 -6 -79 -42 -157 -42 -88 -58 -174 -33 -174 6 0 10 4 10 9 0 5 21 40 46
78 74 108 84 136 84 236 0 127 -13 169 -75 236 l-53 56 95 91 c75 73 94 96 91
115 -2 16 -11 25 -26 27 -29 4 -140 -100 -173 -163 -26 -48 -26 -48 -96 -19
-18 8 -33 18 -33 23 0 5 20 66 45 135 46 130 53 172 35 207 -19 35 -49 23 -71
-28z m59 -14 c1 -21 -14 -77 -38 -144 l-40 -110 3 95 c3 72 9 108 27 148 25
59 44 63 48 11z m-268 -29 c14 -14 20 -33 20 -63 0 -52 -20 -157 -30 -157 -7
0 -19 37 -46 144 -16 66 -16 70 2 83 24 17 30 17 54 -7z m510 -142 c0 -16
-169 -182 -177 -174 -9 9 45 85 98 138 47 47 79 61 79 36z m-706 -39 c47 -55
90 -149 68 -149 -12 0 -84 93 -106 137 -33 65 -13 71 38 12z m331 -119 c-8
-13 -55 -13 -75 0 -11 7 -2 10 33 10 30 0 46 -4 42 -10z m-514 -36 c49 -36
142 -134 134 -142 -9 -9 -205 152 -205 169 0 17 23 9 71 -27z m329 1 c-7 -8
-17 -15 -22 -15 -6 0 -5 7 2 15 7 8 17 15 22 15 6 0 5 -7 -2 -15z m326 -1 c18
-14 18 -14 -6 -3 -31 14 -36 19 -24 19 6 0 19 -7 30 -16z m126 -99 c36 -46 49
-94 50 -189 2 -83 -1 -99 -25 -147 -15 -30 -41 -70 -57 -89 l-30 -35 14 40 c8
22 26 66 40 97 39 83 43 141 16 222 -12 37 -37 90 -56 117 -19 28 -34 53 -34
56 0 8 62 -46 82 -72z m-541 27 c-5 -9 -19 -26 -32 -37 -26 -23 -17 -2 14 33
25 27 31 28 18 4z m-90 -135 c-10 -9 -11 -8 -5 6 3 10 9 15 12 12 3 -3 0 -11
-7 -18z m517 -153 c12 -8 22 -21 22 -28 0 -14 -69 -106 -80 -106 -7 0 4 106
15 133 9 21 14 21 43 1z m-160 -36 c16 -16 15 -60 -1 -82 -13 -18 -15 -17 -35
9 -21 27 -29 65 -15 78 10 11 38 8 51 -5z m-136 -65 c16 -18 48 -77 48 -88 0
-10 -65 -4 -81 8 -9 7 -21 22 -28 35 -24 46 27 84 61 45z m204 -76 c10 4 14
-2 14 -22 0 -28 27 -95 39 -95 9 0 91 -81 91 -90 0 -4 -21 -11 -47 -15 -27 -3
-82 -15 -125 -26 -42 -10 -81 -19 -87 -19 -18 0 -12 36 8 54 11 10 25 31 31
47 11 26 9 35 -16 85 l-28 56 24 18 c17 13 31 16 52 9 16 -4 36 -5 44 -2z
m-260 -109 c13 -20 -31 10 -61 43 l-30 33 42 -33 c24 -18 46 -37 49 -43z m424
-141 c0 -23 -50 -39 -140 -47 -47 -5 -97 -11 -112 -15 -22 -6 -28 -4 -28 8 0
11 28 22 103 40 117 29 177 34 177 14z m20 -51 c0 -8 2 -21 5 -29 5 -11 -12
-15 -82 -20 -48 -4 -112 -14 -141 -22 -57 -17 -72 -14 -72 15 0 23 41 35 149
44 40 4 81 11 90 16 24 14 51 12 51 -4z m-306 -97 c-7 -12 -51 -12 -59 0 -3 5
7 19 22 31 l27 21 8 -21 c4 -12 6 -26 2 -31z m326 8 c0 -31 -63 -60 -183 -85
l-89 -19 -9 24 c-19 50 -12 62 44 77 64 18 94 23 175 25 59 1 62 0 62 -22z
m-10 -107 c-17 -24 -29 -30 -58 -30 -20 0 -70 -7 -110 -17 -64 -15 -75 -15
-83 -2 -18 29 -7 35 88 54 54 11 116 28 138 40 37 19 40 19 43 3 2 -10 -6 -31
-18 -48z m918 -118 c1 -84 -1 -167 -6 -185 -8 -30 -12 -32 -55 -35 -56 -4
-104 19 -113 52 -7 29 -1 292 7 300 7 8 117 24 144 22 19 -1 20 -9 23 -154z
m-1195 76 c8 -29 5 -31 -27 -17 -28 13 -33 24 -13 32 24 10 35 7 40 -15z m186
-23 c-34 -19 -109 -31 -109 -18 0 11 68 30 110 31 l25 1 -26 -14z m-1745 -205
c172 -17 326 -72 417 -150 l34 -29 -35 10 c-19 5 -75 12 -124 14 l-88 5 -50
46 -50 47 -69 -5 c-71 -6 -164 -43 -298 -122 -32 -18 -85 -41 -117 -51 -155
-44 -281 -134 -327 -232 -42 -90 -79 -143 -143 -207 -70 -70 -70 -69 -37 39
20 64 91 209 133 271 84 123 255 305 318 338 64 33 248 44 436 26z m131 -111
c19 -17 35 -35 35 -39 0 -4 -57 -13 -127 -20 -71 -7 -163 -18 -205 -24 -43 -7
-78 -10 -78 -7 0 10 160 90 210 106 78 24 124 19 165 -16z m70 -79 c3 -5 3
-10 0 -10 -76 0 -500 -62 -552 -80 l-28 -10 29 24 c32 27 82 38 261 61 202 25
281 29 290 15z m155 0 c-36 -12 -118 -12 -125 0 -4 6 22 10 72 9 54 -1 70 -3
53 -9z m121 -31 c32 -16 77 -96 104 -181 20 -63 65 -291 65 -324 0 -5 -13 15
-29 43 -63 114 -120 177 -223 243 -30 20 -49 46 -86 122 l-48 97 75 13 c74 14
97 12 142 -13z m-223 -42 c32 -51 67 -125 61 -131 -7 -7 -141 31 -208 59 -135
57 -267 55 -455 -5 -54 -17 -100 -29 -102 -27 -7 7 48 45 88 61 49 21 416 75
571 85 10 1 28 -16 45 -42z m-729 -74 c-45 -43 -109 -93 -142 -110 -34 -18
-62 -33 -64 -33 -24 0 64 100 124 141 35 24 142 76 161 79 2 0 -33 -35 -79
-77z m526 0 c28 -8 54 -19 58 -23 9 -7 -127 -44 -245 -66 -43 -8 -124 -29
-180 -48 -108 -36 -198 -53 -198 -38 0 4 7 29 16 54 14 43 20 48 78 72 180 72
343 89 471 49z m592 -90 c60 -136 98 -389 78 -519 l-7 -49 -18 90 c-10 50 -27
160 -39 246 -12 85 -30 186 -42 225 -35 120 -34 112 -15 87 10 -13 29 -49 43
-80z m-411 -7 c117 -87 133 -105 140 -166 l7 -55 -54 49 c-29 26 -61 60 -70
75 -21 35 -53 55 -115 74 -27 8 -65 22 -84 30 -34 15 -34 15 -10 21 104 23
122 20 186 -28z m104 -4 c0 -4 3 -18 7 -32 6 -23 3 -22 -45 15 -28 22 -51 43
-52 47 0 4 20 0 45 -9 25 -8 45 -18 45 -21z m-855 -9 c-3 -10 -9 -31 -12 -46
-5 -26 -34 -47 -64 -47 -12 0 4 32 38 78 26 34 50 44 38 15z m540 8 c27 -6 24
-8 -38 -25 -110 -30 -177 -92 -177 -165 0 -24 -5 -32 -25 -37 -40 -10 -85 -69
-85 -110 0 -27 -16 -62 -64 -137 -34 -56 -69 -113 -76 -127 l-14 -25 -18 42
c-33 76 -50 166 -52 273 -1 89 2 110 20 140 29 50 87 78 216 105 62 12 142 34
178 48 69 26 87 29 135 18z m448 -89 c70 -67 121 -143 160 -237 25 -60 30 -87
35 -185 4 -104 2 -121 -18 -168 -25 -58 -73 -105 -134 -133 -64 -29 -68 -25
-37 39 68 136 97 304 71 413 -17 72 -60 151 -120 222 -28 32 -50 64 -50 70 0
7 -3 23 -7 36 -6 22 -5 23 18 10 13 -7 50 -37 82 -67z m-1081 21 c-20 -34 -37
-50 -65 -59 -34 -12 -37 -11 -37 5 0 20 29 50 80 80 50 30 53 27 22 -26z m748
9 l34 -29 -85 -5 c-96 -6 -144 -24 -205 -73 -48 -40 -54 -42 -54 -17 0 53 68
111 161 136 82 22 110 20 149 -12z m75 -16 c29 -24 32 -42 4 -31 -17 7 -53 55
-42 55 4 0 22 -11 38 -24z m-710 -46 c-20 -22 -31 -20 -22 5 4 8 14 15 23 15
16 0 16 -2 -1 -20z m-50 -264 l0 -273 -27 9 c-41 15 -106 90 -114 134 -10 53
11 209 41 303 26 82 33 89 95 100 3 1 5 -122 5 -273z m741 253 c12 -10 46 -85
59 -129 6 -22 0 -19 -41 21 -55 52 -93 79 -110 79 -6 0 -28 -12 -49 -26 -33
-22 -41 -24 -67 -13 -16 6 -47 9 -71 6 l-42 -6 25 20 c39 31 78 50 123 59 48
10 156 3 173 -11z m-864 -81 c-11 -34 -23 -83 -28 -108 l-8 -45 -7 50 c-4 28
-8 72 -8 98 -1 45 1 49 32 62 17 7 33 12 35 10 2 -2 -5 -32 -16 -67z m950 19
c21 -57 51 -218 46 -250 -2 -12 -12 14 -22 58 -28 122 -46 187 -63 218 -13 27
-13 28 4 25 10 -2 24 -22 35 -51z m177 -22 c103 -154 104 -317 4 -536 -41 -90
-53 -99 -134 -99 -48 0 -49 1 -38 22 6 11 38 102 71 202 l60 181 -6 95 c-3 52
-9 121 -12 153 -4 31 -4 57 -1 57 3 0 28 -34 56 -75z m-1188 -130 c5 -55 12
-109 15 -120 l5 -20 -16 20 c-30 38 -58 152 -52 213 7 64 30 91 35 39 1 -17 7
-77 13 -132z m1067 142 c42 -44 50 -84 42 -187 -10 -107 -22 -167 -39 -196 -9
-15 -10 -12 -4 21 14 72 6 245 -15 318 -11 37 -16 67 -12 67 3 0 16 -10 28
-23z m-170 -24 c104 -85 129 -162 72 -226 -32 -37 -71 -51 -175 -62 l-60 -7
-10 33 c-7 22 -26 44 -58 66 l-47 33 -9 -23 c-5 -14 -17 -27 -26 -31 -14 -5
-14 -2 2 25 10 17 34 49 53 70 34 39 36 39 72 28 21 -7 41 -10 44 -6 9 8 9 49
1 73 -6 17 -1 26 25 43 46 29 64 26 116 -16z m-953 -154 c4 -13 22 -55 40 -94
28 -60 61 -210 49 -224 -5 -5 -37 34 -83 99 -83 120 -122 229 -101 286 6 16
26 44 43 62 l32 33 6 -69 c4 -38 10 -80 14 -93z m760 142 c8 -13 -30 -32 -49
-25 -8 3 -17 12 -20 20 -4 10 3 14 29 14 18 0 36 -4 40 -9z m-211 -56 c-20
-25 -39 -44 -41 -41 -8 7 26 65 44 75 35 20 34 10 -3 -34z m116 25 c22 -11 40
-23 40 -26 0 -3 -15 -24 -34 -45 -18 -22 -44 -60 -57 -84 -13 -25 -28 -45 -32
-45 -15 0 -67 61 -67 78 0 20 92 142 107 142 2 0 22 -9 43 -20z m130 -15 c0
-8 -7 -15 -16 -15 -14 0 -14 3 -4 15 7 8 14 15 16 15 2 0 4 -7 4 -15z m-233
-259 c-11 -33 -22 -44 -68 -67 -55 -28 -134 -51 -143 -42 -7 7 28 74 86 165
l49 77 45 -46 44 -47 -13 -40z m523 17 c0 -83 -4 -104 -23 -137 -49 -87 -132
-106 -237 -54 -93 46 -204 158 -186 187 3 5 27 4 53 -1 137 -29 329 13 364 78
22 43 29 26 29 -73z m-333 47 c6 -13 10 -26 7 -29 -6 -6 -54 40 -54 51 0 19
35 2 47 -22z m-97 5 c-7 -9 -15 -13 -17 -11 -7 7 7 26 19 26 6 0 6 -6 -2 -15z
m48 -23 c2 -7 -3 -12 -12 -12 -9 0 -16 7 -16 16 0 17 22 14 28 -4z m-107 -45
c-8 -8 -11 -7 -11 4 0 20 13 34 18 19 3 -7 -1 -17 -7 -23z m-280 -93 c11 -13
1 -24 -22 -24 -22 0 -29 20 -28 83 l0 52 20 -50 c11 -27 25 -55 30 -61z m314
57 c10 -31 119 -127 177 -155 29 -14 77 -29 106 -33 l53 -8 -58 -39 -58 -38
-82 6 c-97 7 -182 24 -202 39 -10 9 -12 34 -9 104 3 80 7 96 28 118 28 30 37
31 45 6z m-415 -92 l37 -11 15 -89 c8 -49 13 -89 10 -89 -2 0 -23 14 -47 31
-34 24 -49 46 -68 93 -14 33 -28 77 -32 96 l-8 35 28 -28 c15 -15 45 -32 65
-38z m322 -39 l-3 -90 -37 19 c-20 10 -57 37 -82 59 -40 36 -43 41 -25 47 11
3 47 17 80 30 33 13 62 24 65 24 3 1 4 -39 2 -89z m559 -2 c-48 -137 -49 -138
-97 -138 l-44 0 77 95 c43 52 78 95 80 95 1 0 -6 -24 -16 -52z m-795 10 c-3
-13 -6 -27 -6 -33 0 -5 -5 -3 -10 5 -15 23 -12 50 6 50 12 0 15 -6 10 -22z
m190 -101 c42 -21 54 -33 67 -69 10 -24 17 -47 17 -51 0 -4 -44 -7 -99 -7 -86
0 -102 3 -132 23 -34 23 -34 24 -33 98 1 41 6 87 13 103 l12 29 52 -50 c29
-28 75 -62 103 -76z m960 86 c-14 -27 -89 -103 -102 -103 -3 0 17 22 44 48 27
27 53 58 57 71 4 12 9 20 12 18 2 -3 -2 -18 -11 -34z m-1312 -32 c-7 -7 -12 3
-18 34 l-6 30 14 -30 c8 -16 12 -32 10 -34z m1307 -43 c-76 -194 -192 -341
-321 -405 -117 -59 -203 -75 -395 -76 -235 0 -281 16 -329 111 -46 92 -44 99
17 49 138 -112 318 -123 507 -31 59 30 95 58 173 136 85 86 107 102 165 124
71 26 172 88 172 104 0 6 4 10 10 10 6 0 6 -9 1 -22z m-1258 -45 c40 -64 41
-69 13 -43 -32 29 -62 80 -46 80 5 0 20 -17 33 -37z m522 -24 c86 -12 89 -13
60 -25 -16 -7 -58 -18 -93 -24 -71 -14 -84 -9 -101 42 -11 30 -10 30 17 25 15
-4 68 -12 117 -18z m584 16 c-12 -11 -79 -34 -79 -27 0 5 15 14 33 20 37 11
52 14 46 7z m-999 -67 c0 -17 -29 -7 -44 17 -23 35 -20 38 14 13 17 -12 30
-25 30 -30z m580 37 c0 -2 -29 -20 -63 -40 -45 -24 -76 -35 -105 -35 -55 0
-54 16 1 24 23 4 65 17 92 30 48 23 75 31 75 21z m150 0 c0 -18 -26 -55 -39
-56 -9 0 -49 -4 -88 -8 -40 -4 -73 -4 -73 -1 0 3 22 19 48 37 37 25 58 32 100
32 28 1 52 -1 52 -4z m150 -5 c0 -9 -35 -20 -107 -35 -36 -7 -39 -4 -21 25 10
16 24 20 70 20 32 0 58 -4 58 -10z m-59 -79 c-107 -135 -276 -222 -431 -222
-124 0 -216 40 -310 135 -48 50 -47 59 1 24 23 -17 47 -23 102 -26 57 -3 87
-12 147 -40 63 -31 86 -37 142 -37 59 0 71 3 116 35 27 19 70 60 95 90 45 54
71 67 160 79 5 0 -5 -17 -22 -38z m-682 -28 c66 -37 68 -50 6 -39 -50 10 -123
76 -83 76 6 0 41 -17 77 -37z m220 23 l34 -12 -69 -23 -69 -24 -62 32 c-35 17
-63 33 -63 36 0 10 197 3 229 -9z m263 -67 c-90 -84 -154 -93 -284 -37 -26 11
-48 23 -48 27 0 3 35 19 78 34 83 31 303 61 311 43 2 -6 -23 -36 -57 -67z"/>
<path d="M3485 3685 c-44 -43 -24 -107 38 -120 17 -4 42 -16 54 -27 16 -15 29
-18 51 -14 27 7 28 5 24 -24 -5 -37 6 -38 34 -3 19 24 24 26 38 14 11 -9 16
-29 16 -62 0 -26 4 -50 8 -53 14 -8 52 68 58 117 8 58 -7 101 -55 157 -39 44
-39 45 -75 32 -26 -10 -45 -10 -73 -3 -60 17 -92 13 -118 -14z"/>
<path d="M4182 796 c-59 -20 -111 -63 -112 -92 0 -13 -59 -55 -112 -80 -23
-11 -38 -25 -41 -40 -6 -31 -1 -34 47 -34 66 1 128 19 172 50 24 17 45 25 53
21 7 -5 29 -2 49 5 20 7 45 13 54 14 25 0 28 12 14 45 -8 17 -22 50 -32 75
-10 25 -20 48 -23 51 -3 4 -34 -3 -69 -15z"/>
<path d="M3398 741 c-14 -3 -45 -23 -67 -43 -40 -36 -61 -45 -148 -68 -24 -6
-43 -15 -43 -20 0 -4 -3 -15 -6 -23 -13 -36 163 -52 226 -21 23 12 38 14 49 7
9 -6 42 -8 74 -5 l59 5 -6 43 c-3 24 -9 64 -12 89 l-6 45 -47 -1 c-25 -1 -58
-4 -73 -8z"/>
</g>
</svg>
